<svg width="149" height="110" viewBox="0 0 149 110" fill="none" xmlns="http://www.w3.org/2000/svg">
<mask id="mask0_1448_3725" style="mask-type:alpha" maskUnits="userSpaceOnUse" x="2" y="2" width="144" height="106">
<path d="M138.7 84.6953C145.077 64.899 145.077 45.1027 138.7 25.3064C140.484 24.5274 142.052 23.3243 143.266 21.8018C144.48 20.2792 145.303 18.4832 145.665 16.5699C146.027 14.6566 145.916 12.6838 145.342 10.8231C144.768 8.96246 143.748 7.27011 142.371 5.89322C140.994 4.51632 139.302 3.49653 137.441 2.92249C135.581 2.34845 133.608 2.23753 131.694 2.59936C129.781 2.9612 127.985 3.78484 126.463 4.99871C124.94 6.21257 123.737 7.77992 122.958 9.56453C90.7199 3.1876 57.5449 3.1876 25.3069 9.56453C24.5279 7.77992 23.3248 6.21257 21.8023 4.99871C20.2797 3.78484 18.4837 2.9612 16.5704 2.59936C14.6571 2.23753 12.6843 2.34845 10.8236 2.92249C8.96294 3.49653 7.2706 4.51632 5.89371 5.89322C4.51681 7.27011 3.49702 8.96246 2.92298 10.8231C2.34894 12.6838 2.23801 14.6566 2.59985 16.5699C2.96168 18.4832 3.78533 20.2792 4.99919 21.8018C6.21306 23.3243 7.78041 24.5274 9.56502 25.3064C3.18799 45.1027 3.18799 64.899 9.56502 84.6953C7.78041 85.4743 6.21306 86.6774 4.99919 88.2C3.78533 89.7225 2.96168 91.5185 2.59985 93.4318C2.23801 95.3451 2.34894 97.3179 2.92298 99.1786C3.49702 101.039 4.51681 102.732 5.89371 104.109C7.2706 105.485 8.96294 106.505 10.8236 107.079C12.6843 107.653 14.6571 107.764 16.5704 107.402C18.4837 107.041 20.2797 106.217 21.8023 105.003C23.3248 103.789 24.5279 102.222 25.3069 100.437C57.5449 106.814 90.7199 106.814 122.958 100.437C123.737 102.222 124.94 103.789 126.463 105.003C127.985 106.217 129.781 107.041 131.694 107.402C133.608 107.764 135.581 107.653 137.441 107.079C139.302 106.505 140.994 105.485 142.371 104.109C143.748 102.732 144.768 101.039 145.342 99.1786C145.916 97.3179 146.027 95.3451 145.665 93.4318C145.303 91.5185 144.48 89.7225 143.266 88.2C142.052 86.6774 140.484 85.4743 138.7 84.6953ZM50.2186 94.5071C70.9378 96.4961 91.8241 95.8948 112.395 92.7172Z" fill="white"/>
</mask>
<g mask="url(#mask0_1448_3725)">
<path d="M-75.0293 -67.5566H223.595V115.982H-75.0293V-67.5566Z" fill="white"/>
<path d="M-75.0293 -51.5037C-58.4386 -37.5124 -41.8489 -23.5211 -25.2582 -26.2756C-8.66857 -29.0301 7.92214 -48.5281 24.5118 -51.5037C41.1025 -54.4769 57.6921 -40.9279 74.2829 -42.3285C90.8736 -43.7316 107.463 -60.0843 124.054 -58.3839C140.644 -56.6835 157.234 -36.93 173.824 -35.4483C190.415 -33.9691 207.004 -50.7641 223.595 -67.5566V72.3394C207.004 72.3394 190.415 72.3394 173.824 72.3394C157.234 72.3394 140.644 72.3394 124.054 72.3394C107.463 72.3394 90.8736 72.3394 74.2829 72.3394C57.6921 72.3394 41.1025 72.3394 24.5118 72.3394C7.92214 72.3394 -8.66857 72.3394 -25.2582 72.3394C-41.8489 72.3394 -58.4386 72.3394 -75.0293 72.3394V-51.5037Z" fill="white"/>
<path d="M223.595 -11.8677C207.004 -16.7153 190.414 -21.5628 173.824 -18.6374C157.234 -15.7119 140.643 -5.01104 124.054 -7.35382C107.463 -9.6966 90.8733 -25.0806 74.2826 -23.1488C57.6919 -21.2195 41.1022 -1.97438 24.5115 8.44119C7.92184 18.8568 -8.66885 20.4452 -25.2585 17.469C-41.8492 14.4928 -58.4389 6.95429 -75.0296 -0.584184V89.6768C-58.4389 89.6768 -41.8492 89.6768 -25.2585 89.6768C-8.66885 89.6768 7.92184 89.6768 24.5115 89.6768C41.1022 89.6768 57.6919 89.6768 74.2826 89.6768C90.8733 89.6768 107.463 89.6768 124.054 89.6768C140.643 89.6768 157.234 89.6768 173.824 89.6768C190.414 89.6768 207.004 89.6768 223.595 89.6768V-11.8677Z" fill="white"/>
<path d="M223.595 16.7396C207.004 20.7318 190.414 24.724 173.824 34.0886C157.234 43.4532 140.643 58.1904 124.054 53.608C107.463 49.0256 90.8733 25.126 74.2826 23.2461C57.6919 21.3662 41.1022 41.5083 24.5115 51.4399C7.92183 61.3715 -8.66887 61.095 -25.2585 60.1144C-41.8492 59.1361 -58.4389 57.456 -75.0296 55.7783V118.672C-58.4389 118.672 -41.8492 118.672 -25.2585 118.672C-8.66887 118.672 7.92183 118.672 24.5115 118.672C41.1022 118.672 57.6919 118.672 74.2826 118.672C90.8733 118.672 107.463 118.672 124.054 118.672C140.643 118.672 157.234 118.672 173.824 118.672C190.414 118.672 207.004 118.672 223.595 118.672V16.7396Z" fill="url(#paint0_linear_1448_3725)"/>
<path d="M243.852 82.7239C227.265 85.2629 210.679 87.8019 194.092 82.7239C177.506 77.6459 160.919 64.953 144.334 63.0587C127.747 61.1645 111.161 70.0731 94.5743 70.9244C77.9874 71.7777 61.4016 64.5737 44.8148 59.1249C28.229 53.6781 11.6422 49.9844 -4.94359 53.2251C-21.5304 56.4679 -38.1162 66.6471 -54.7031 76.8241V118.122C-38.1162 118.122 -21.5304 118.122 -4.94359 118.122C11.6422 118.122 28.229 118.122 44.8148 118.122C61.4016 118.122 77.9874 118.122 94.5743 118.122C111.161 118.122 127.747 118.122 144.334 118.122C160.919 118.122 177.506 118.122 194.092 118.122C210.679 118.122 227.265 118.122 243.852 118.122V82.7239Z" fill="url(#paint1_linear_1448_3725)"/>
<path d="M-67.1812 59.8297C-50.5282 60.5908 -33.8761 61.354 -17.0672 64.9743C-0.259281 68.5968 16.7056 75.0785 33.474 77.9751C50.2434 80.8717 66.8163 80.1832 83.4809 81.1568C100.145 82.1303 116.9 84.764 133.595 86.3014C150.289 87.8389 166.924 88.278 183.172 81.6291C199.421 74.9801 215.282 61.241 231.145 47.5018L234.25 104.447C217.688 105.35 201.127 106.253 184.564 107.156C168.003 108.059 151.441 108.962 134.88 109.865C118.318 110.769 101.756 111.672 85.1941 112.575C68.6319 113.478 52.0707 114.381 35.5085 115.284C18.9473 116.187 2.38506 117.09 -14.1761 117.993C-30.7383 118.897 -47.2995 119.8 -63.8618 120.703L-67.1812 59.8297Z" fill="url(#paint2_linear_1448_3725)"/>
</g>
<path d="M141.572 83.5173C147.281 64.5829 147.281 45.4171 141.572 26.4827C143.401 25.3286 144.945 23.7761 146.09 21.9411C147.234 20.1061 147.949 18.0362 148.181 15.8861C148.412 13.7359 148.155 11.5612 147.428 9.52451C146.701 7.48781 145.523 5.64178 143.982 4.12446C142.441 2.60714 140.577 1.45777 138.529 0.762269C136.482 0.0667721 134.303 -0.156859 132.157 0.108099C130.011 0.373057 127.952 1.11975 126.135 2.29235C124.318 3.46495 122.789 5.03312 121.664 6.87964C90.2556 0.922995 58.0077 0.922995 26.5996 6.87964C25.4739 5.03312 23.9454 3.46495 22.1283 2.29235C20.3112 1.11975 18.2525 0.373057 16.1063 0.108099C13.96 -0.156859 11.7815 0.0667721 9.73384 0.762269C7.68614 1.45777 5.82214 2.60714 4.2812 4.12446C2.74025 5.64178 1.56222 7.48781 0.835173 9.52451C0.108126 11.5612 -0.149128 13.7359 0.0826424 15.8861C0.314413 18.0362 1.02921 20.1061 2.1736 21.9411C3.31799 23.7761 4.86237 25.3286 6.69127 26.4827C0.981839 45.4171 0.981839 64.5829 6.69127 83.5173C4.86237 84.6713 3.31799 86.2239 2.1736 88.0589C1.02921 89.8939 0.314413 91.9638 0.0826424 94.1139C-0.149128 96.2641 0.108126 98.4388 0.835173 100.475C1.56222 102.512 2.74025 104.358 4.2812 105.876C5.82214 107.393 7.68614 108.542 9.73384 109.238C11.7815 109.933 13.96 110.157 16.1063 109.892C18.2525 109.627 20.3112 108.88 22.1283 107.708C23.9454 106.535 25.4739 104.967 26.5996 103.12C58.0077 109.077 90.2556 109.077 121.664 103.12C122.789 104.967 124.318 106.535 126.135 107.708C127.952 108.88 130.011 109.627 132.157 109.892C134.303 110.157 136.482 109.933 138.529 109.238C140.577 108.542 142.441 107.393 143.982 105.876C145.523 104.358 146.701 102.512 147.428 100.475C148.155 98.4388 148.412 96.2641 148.181 94.1139C147.949 91.9638 147.234 89.8939 146.09 88.0589C144.945 86.2239 143.401 84.6713 141.572 83.5173ZM133.917 105.219C132.056 105.219 130.235 104.676 128.678 103.656C127.121 102.637 125.895 101.185 125.149 99.4798C124.932 98.981 124.55 98.5714 124.068 98.3188C123.586 98.0663 123.033 97.9858 122.499 98.0907C90.5613 104.378 57.7044 104.378 25.7671 98.0907C25.2331 97.9858 24.6793 98.0663 24.1972 98.3188C23.7152 98.5714 23.3338 98.981 23.1162 99.4798C22.4928 100.907 21.5303 102.161 20.3122 103.132C19.0941 104.103 17.6574 104.761 16.1268 105.051C14.5963 105.34 13.0182 105.251 11.5298 104.792C10.0414 104.333 8.68763 103.517 7.5862 102.416C6.48476 101.314 5.66897 99.9604 5.20972 98.4719C4.75046 96.9835 4.66165 95.4054 4.95098 93.8749C5.24032 92.3443 5.89905 90.9076 6.86994 89.6895C7.84082 88.4714 9.09448 87.5089 10.522 86.8855C11.0651 86.6482 11.5007 86.2176 11.7443 85.6772C11.9879 85.1369 12.0222 84.5254 11.8405 83.9612C5.64982 64.744 5.64982 45.256 11.8405 26.0388C12.0222 25.4746 11.9879 24.8631 11.7443 24.3228C11.5007 23.7824 11.0651 23.3518 10.522 23.1145C9.09448 22.4911 7.84082 21.5285 6.86994 20.3105C5.89905 19.0924 5.24032 17.6557 4.95098 16.1251C4.66165 14.5945 4.75046 13.0165 5.20972 11.5281C5.66897 10.0396 6.48476 8.68588 7.5862 7.58445C8.68763 6.48301 10.0414 5.66722 11.5298 5.20797C13.0182 4.74871 14.5963 4.65989 16.1268 4.94923C17.6574 5.23856 19.0941 5.8973 20.3122 6.86818C21.5303 7.83907 22.4928 9.09273 23.1162 10.5202C23.3341 11.0188 23.7155 11.4281 24.1975 11.6807C24.6794 11.9332 25.2331 12.0139 25.7671 11.9093C57.7044 5.62177 90.5613 5.62177 122.499 11.9093C123.033 12.0139 123.586 11.9332 124.068 11.6807C124.55 11.4281 124.932 11.0188 125.149 10.5202C125.773 9.09273 126.735 7.83907 127.953 6.86818C129.172 5.8973 130.608 5.23856 132.139 4.94923C133.669 4.65989 135.247 4.74871 136.736 5.20797C138.224 5.66722 139.578 6.48301 140.679 7.58445C141.781 8.68588 142.597 10.0396 143.056 11.5281C143.515 13.0165 143.604 14.5945 143.315 16.1251C143.025 17.6557 142.367 19.0924 141.396 20.3105C140.425 21.5285 139.171 22.4911 137.744 23.1145C137.201 23.3518 136.765 23.7824 136.521 24.3228C136.278 24.8631 136.243 25.4746 136.425 26.0388C142.616 45.256 142.616 64.744 136.425 83.9612C136.243 84.5254 136.278 85.1369 136.521 85.6772C136.765 86.2176 137.201 86.6482 137.744 86.8855C139.758 87.7642 141.409 89.3099 142.418 91.2627C143.427 93.2154 143.733 95.4561 143.284 97.6078C142.835 99.7594 141.658 101.691 139.952 103.077C138.247 104.463 136.115 105.22 133.917 105.219Z" fill="#E9E9E9"/>
<defs>
<linearGradient id="paint0_linear_1448_3725" x1="74.2826" y1="16.7396" x2="74.2826" y2="118.672" gradientUnits="userSpaceOnUse">
<stop stop-color="#86EFAC"/>
<stop offset="1" stop-color="#3DEB7C"/>
</linearGradient>
<linearGradient id="paint1_linear_1448_3725" x1="94.5742" y1="52.0126" x2="94.5742" y2="118.122" gradientUnits="userSpaceOnUse">
<stop stop-color="#81CDFF"/>
<stop offset="1" stop-color="#18A0FB"/>
</linearGradient>
<linearGradient id="paint2_linear_1448_3725" x1="86.1626" y1="55.5803" x2="89.1388" y2="112.203" gradientUnits="userSpaceOnUse">
<stop stop-color="#3486B0"/>
<stop offset="1" stop-color="#0C0539"/>
</linearGradient>
</defs>
</svg>
