<svg width="3300" height="1913" viewBox="0 0 3300 1913" fill="none" xmlns="http://www.w3.org/2000/svg">
<path d="M0 282.76C183.333 272.676 366.654 262.568 549.987 195.822C733.308 129.075 916.64 5.66609 1099.96 0.193151C1283.29 -5.27979 1466.62 107.183 1649.95 130.612C1833.28 154.041 2016.6 88.4356 2199.93 87.1314C2383.26 85.8505 2566.59 148.871 2749.91 217.55C2933.24 286.253 3116.56 360.592 3299.9 434.931V1913C3116.56 1913 2933.24 1913 2749.91 1913C2566.59 1913 2383.26 1913 2199.93 1913C2016.6 1913 1833.28 1913 1649.95 1913C1466.62 1913 1283.29 1913 1099.96 1913C916.64 1913 733.308 1913 549.987 1913C366.654 1913 183.333 1913 0 1913V282.76Z" fill="url(#paint0_linear_1261_3626)"/>
<path d="M0 130.614C183.333 141.303 366.654 151.97 549.987 239.304C733.308 326.615 916.64 490.57 1099.96 565.351C1283.29 640.109 1466.62 625.717 1649.95 587.08C1833.28 548.443 2016.6 485.54 2199.93 369.723C2383.26 253.883 2566.59 85.1066 2749.91 108.885C2933.24 132.663 3116.56 348.996 3299.9 565.351V1913C3116.56 1913 2933.24 1913 2749.91 1913C2566.59 1913 2383.26 1913 2199.93 1913C2016.6 1913 1833.28 1913 1649.95 1913C1466.62 1913 1283.29 1913 1099.96 1913C916.64 1913 733.308 1913 549.987 1913C366.654 1913 183.333 1913 0 1913V130.614Z" fill="url(#paint1_linear_1261_3626)"/>
<path d="M0 652.286C183.333 566.466 366.654 480.645 549.987 413.177C733.308 345.732 916.64 296.638 1099.96 326.239C1283.29 355.839 1466.62 464.133 1649.95 565.348C1833.28 666.539 2016.6 760.627 2199.93 739.224C2383.26 717.845 2566.59 580.975 2749.91 521.867C2933.24 462.759 3116.56 481.46 3299.9 500.138V1913C3116.56 1913 2933.24 1913 2749.91 1913C2566.59 1913 2383.26 1913 2199.93 1913C2016.6 1913 1833.28 1913 1649.95 1913C1466.62 1913 1283.29 1913 1099.96 1913C916.64 1913 733.308 1913 549.987 1913C366.654 1913 183.333 1913 0 1913V652.286Z" fill="url(#paint2_linear_1261_3626)"/>
<path d="M0 804.435C183.333 737.362 366.654 670.266 549.987 652.287C733.308 634.308 916.64 665.422 1099.96 608.806C1283.29 552.214 1466.62 407.868 1649.95 456.659C1833.28 505.449 2016.6 747.353 2199.93 782.706C2383.26 818.059 2566.59 646.861 2749.91 565.349C2933.24 483.814 3116.56 491.965 3299.9 500.139V1913C3116.56 1913 2933.24 1913 2749.91 1913C2566.59 1913 2383.26 1913 2199.93 1913C2016.6 1913 1833.28 1913 1649.95 1913C1466.62 1913 1283.29 1913 1099.96 1913C916.64 1913 733.308 1913 549.987 1913C366.654 1913 183.333 1913 0 1913V804.435Z" fill="url(#paint3_linear_1261_3626)"/>
<path d="M0 739.225C183.333 871.833 366.654 1004.44 549.987 978.335C733.308 952.228 916.64 767.428 1099.96 739.225C1283.29 711.045 1466.62 839.462 1649.95 826.187C1833.28 812.889 2016.6 657.9 2199.93 674.016C2383.26 690.132 2566.59 877.353 2749.91 891.396C2933.24 905.416 3116.56 746.235 3299.9 587.078V1913C3116.56 1913 2933.24 1913 2749.91 1913C2566.59 1913 2383.26 1913 2199.93 1913C2016.6 1913 1833.28 1913 1649.95 1913C1466.62 1913 1283.29 1913 1099.96 1913C916.64 1913 733.308 1913 549.987 1913C366.654 1913 183.333 1913 0 1913V739.225Z" fill="url(#paint4_linear_1261_3626)"/>
<path d="M0 891.394C183.333 766.355 366.654 641.339 549.987 630.556C733.308 619.75 916.64 723.2 1099.96 826.185C1283.29 929.169 1466.62 1031.71 1649.95 1000.06C1833.28 968.434 2016.6 802.616 2199.93 804.433C2383.26 806.272 2566.59 975.747 2749.91 1000.06C2933.24 1024.4 3116.56 903.551 3299.9 782.704V1912.99C3116.56 1912.99 2933.24 1912.99 2749.91 1912.99C2566.59 1912.99 2383.26 1912.99 2199.93 1912.99C2016.6 1912.99 1833.28 1912.99 1649.95 1912.99C1466.62 1912.99 1283.29 1912.99 1099.96 1912.99C916.64 1912.99 733.308 1912.99 549.987 1912.99C366.654 1912.99 183.333 1912.99 0 1912.99V891.394Z" fill="url(#paint5_linear_1261_3626)"/>
<path d="M0 934.853C183.333 888.158 366.654 841.464 549.987 869.644C733.308 897.823 916.64 1000.9 1099.96 978.334C1283.29 955.767 1466.62 807.578 1649.95 826.186C1833.28 844.771 2016.6 1030.15 2199.93 1130.48C2383.26 1230.81 2566.59 1246.11 2749.91 1217.44C2933.24 1188.77 3116.56 1116.16 3299.9 1043.54V1913C3116.56 1913 2933.24 1913 2749.91 1913C2566.59 1913 2383.26 1913 2199.93 1913C2016.6 1913 1833.28 1913 1649.95 1913C1466.62 1913 1283.29 1913 1099.96 1913C916.64 1913 733.308 1913 549.987 1913C366.654 1913 183.333 1913 0 1913V934.853Z" fill="url(#paint6_linear_1261_3626)"/>
<path d="M0 891.401C183.333 931.412 366.654 971.423 549.987 1065.28C733.308 1159.13 916.64 1306.83 1099.96 1260.91C1283.29 1214.98 1466.62 975.452 1649.95 956.611C1833.28 937.77 2016.6 1139.64 2199.93 1239.18C2383.26 1338.72 2566.59 1335.94 2749.91 1326.12C2933.24 1316.31 3116.56 1299.47 3299.9 1282.66V1913C3116.56 1913 2933.24 1913 2749.91 1913C2566.59 1913 2383.26 1913 2199.93 1913C2016.6 1913 1833.28 1913 1649.95 1913C1466.62 1913 1283.29 1913 1099.96 1913C916.64 1913 733.308 1913 549.987 1913C366.654 1913 183.333 1913 0 1913V891.401Z" fill="url(#paint7_linear_1261_3626)"/>
<path d="M0 1521.74C183.333 1549.8 366.654 1577.87 549.987 1521.74C733.308 1465.61 916.64 1325.32 1099.96 1304.38C1283.29 1283.45 1466.62 1381.91 1649.95 1391.32C1833.28 1400.75 2016.6 1321.13 2199.93 1260.9C2383.26 1200.7 2566.59 1159.88 2749.91 1195.69C2933.24 1231.54 3116.56 1344.05 3299.9 1456.53V1913C3116.56 1913 2933.24 1913 2749.91 1913C2566.59 1913 2383.26 1913 2199.93 1913C2016.6 1913 1833.28 1913 1649.95 1913C1466.62 1913 1283.29 1913 1099.96 1913C916.64 1913 733.308 1913 549.987 1913C366.654 1913 183.333 1913 0 1913V1521.74Z" fill="url(#paint8_linear_1261_3626)"/>
<path d="M0 1239.17C183.333 1257.59 366.654 1276.04 549.987 1326.11C733.308 1376.21 916.64 1457.95 1099.96 1500.01C1283.29 1542.07 1466.62 1544.45 1649.95 1565.22C1833.28 1585.99 2016.6 1625.14 2199.93 1652.16C2383.26 1679.17 2566.59 1694.03 2749.91 1630.43C2933.24 1566.83 3116.56 1424.74 3299.9 1282.65V1913C3116.56 1913 2933.24 1913 2749.91 1913C2566.59 1913 2383.26 1913 2199.93 1913C2016.6 1913 1833.28 1913 1649.95 1913C1466.62 1913 1283.29 1913 1099.96 1913C916.64 1913 733.308 1913 549.987 1913C366.654 1913 183.333 1913 0 1913V1239.17Z" fill="url(#paint9_linear_1261_3626)"/>
<defs>
<linearGradient id="paint0_linear_1261_3626" x1="1694.94" y1="128.855" x2="1685.02" y2="1908.04" gradientUnits="userSpaceOnUse">
<stop stop-color="#0C0539"/>
<stop offset="1" stop-color="#3486B0"/>
</linearGradient>
<linearGradient id="paint1_linear_1261_3626" x1="1694.94" y1="228.294" x2="1686.1" y2="1908.32" gradientUnits="userSpaceOnUse">
<stop stop-color="#0C0539"/>
<stop offset="1" stop-color="#3486B0"/>
</linearGradient>
<linearGradient id="paint2_linear_1261_3626" x1="1694.94" y1="424.908" x2="1688.04" y2="1908.87" gradientUnits="userSpaceOnUse">
<stop stop-color="#0C0539"/>
<stop offset="1" stop-color="#3486B0"/>
</linearGradient>
<linearGradient id="paint3_linear_1261_3626" x1="1694.94" y1="545.514" x2="1689.11" y2="1909.21" gradientUnits="userSpaceOnUse">
<stop stop-color="#0C0539"/>
<stop offset="1" stop-color="#3486B0"/>
</linearGradient>
<linearGradient id="paint4_linear_1261_3626" x1="1694.94" y1="676.388" x2="1690.17" y2="1909.58" gradientUnits="userSpaceOnUse">
<stop stop-color="#0C0539"/>
<stop offset="1" stop-color="#3486B0"/>
</linearGradient>
<linearGradient id="paint5_linear_1261_3626" x1="1694.94" y1="716.211" x2="1690.48" y2="1909.69" gradientUnits="userSpaceOnUse">
<stop stop-color="#0C0539"/>
<stop offset="1" stop-color="#3486B0"/>
</linearGradient>
<linearGradient id="paint6_linear_1261_3626" x1="1694.94" y1="897.888" x2="1691.73" y2="1910.2" gradientUnits="userSpaceOnUse">
<stop stop-color="#0C0539"/>
<stop offset="1" stop-color="#3486B0"/>
</linearGradient>
<linearGradient id="paint7_linear_1261_3626" x1="1694.94" y1="960.214" x2="1692.11" y2="1910.37" gradientUnits="userSpaceOnUse">
<stop stop-color="#0C0539"/>
<stop offset="1" stop-color="#3486B0"/>
</linearGradient>
<linearGradient id="paint8_linear_1261_3626" x1="1694.94" y1="1231.51" x2="1693.49" y2="1911.12" gradientUnits="userSpaceOnUse">
<stop stop-color="#0C0539"/>
<stop offset="1" stop-color="#3486B0"/>
</linearGradient>
<linearGradient id="paint9_linear_1261_3626" x1="1694.94" y1="1284.56" x2="1693.71" y2="1911.27" gradientUnits="userSpaceOnUse">
<stop stop-color="#0C0539"/>
<stop offset="1" stop-color="#3486B0"/>
</linearGradient>
</defs>
</svg>
